<svg id="ESLA_MX" data-name="ESLA + MX" xmlns="http://www.w3.org/2000/svg" viewBox="0 0 109.25 40"><defs><style>.cls-1{opacity:0.4;}.cls-2{fill:#fff;}</style></defs><title>apple-music-badge</title><path class="cls-1" d="M99.72,0H7.52a13.27,13.27,0,0,0-2,.18,6.64,6.64,0,0,0-1.9.63A6.42,6.42,0,0,0,2,2,6.31,6.31,0,0,0,.82,3.62a6.62,6.62,0,0,0-.62,1.9,13.06,13.06,0,0,0-.18,2c0,0.31,0,.61,0,0.92V31.56c0,0.31,0,.61,0,0.92a13.06,13.06,0,0,0,.18,2,6.54,6.54,0,0,0,.62,1.9A6.18,6.18,0,0,0,2,38a6.28,6.28,0,0,0,1.62,1.18,6.71,6.71,0,0,0,1.9.63,13.4,13.4,0,0,0,2,.18h94.2a13.24,13.24,0,0,0,2-.18,6.78,6.78,0,0,0,1.91-.63A6.26,6.26,0,0,0,107.25,38a6.39,6.39,0,0,0,1.18-1.61,6.59,6.59,0,0,0,.62-1.9,13.59,13.59,0,0,0,.19-2c0-.31,0-0.61,0-0.92s0-.73,0-1.09V9.54c0-.37,0-0.73,0-1.09s0-.61,0-0.92a13.32,13.32,0,0,0-.19-2,6.59,6.59,0,0,0-.62-1.9,6.47,6.47,0,0,0-2.8-2.8,6.74,6.74,0,0,0-1.91-.63,13.11,13.11,0,0,0-2-.18h-2Z"/><path d="M8.44,39.13H7.54A12.86,12.86,0,0,1,5.67,39,5.89,5.89,0,0,1,4,38.4a5.38,5.38,0,0,1-1.4-1,5.32,5.32,0,0,1-1-1.4,5.67,5.67,0,0,1-.54-1.66,12.14,12.14,0,0,1-.17-1.87c0-.21,0-0.91,0-0.91V8.44s0-.69,0-0.89a12.21,12.21,0,0,1,.16-1.87A5.76,5.76,0,0,1,1.6,4a5.38,5.38,0,0,1,1-1.4A5.57,5.57,0,0,1,4,1.6a5.82,5.82,0,0,1,1.65-.54A12.51,12.51,0,0,1,7.54.89h94.17a12.37,12.37,0,0,1,1.86.16,5.93,5.93,0,0,1,1.67.55A5.59,5.59,0,0,1,107.66,4a5.75,5.75,0,0,1,.54,1.65,13.09,13.09,0,0,1,.17,1.89c0,0.28,0,.59,0,0.89s0,0.73,0,1.09V30.47c0,0.36,0,.72,0,1.07s0,0.62,0,.93a12.85,12.85,0,0,1-.17,1.85,5.74,5.74,0,0,1-.54,1.67,5.48,5.48,0,0,1-1,1.39,5.4,5.4,0,0,1-1.4,1,5.87,5.87,0,0,1-1.67.55,12.74,12.74,0,0,1-1.87.16H8.44Z"/><path class="cls-2" d="M36.2,10H32.66V3.59h3.39V4.28H33.48v2h2.43V7H33.48V9.31H36.2V10Z"/><path class="cls-2" d="M40.33,8.71a1.22,1.22,0,0,1-.46,1,1.9,1.9,0,0,1-1.24.38,2.5,2.5,0,0,1-1.26-.3l0.2-.63a2,2,0,0,0,1.08.32,0.71,0.71,0,0,0,.88-0.68,0.65,0.65,0,0,0-.19-0.48,1.85,1.85,0,0,0-.65-0.36,1.49,1.49,0,0,1-1.21-1.3,1.23,1.23,0,0,1,.43-1,1.64,1.64,0,0,1,1.13-.38,2.12,2.12,0,0,1,1.11.28L40,6.19A1.69,1.69,0,0,0,39,5.92a0.81,0.81,0,0,0-.55.18,0.57,0.57,0,0,0-.2.45A0.54,0.54,0,0,0,38.5,7a2.05,2.05,0,0,0,.65.34A1.53,1.53,0,0,1,40.33,8.71Z"/><path class="cls-2" d="M45.08,5.54l-0.18.64A1.93,1.93,0,0,0,44,6a1.44,1.44,0,0,0-1.18.52,1.82,1.82,0,0,0-.41,1.23A1.76,1.76,0,0,0,42.81,9a1.48,1.48,0,0,0,1.13.47,2.42,2.42,0,0,0,1-.22l0.13,0.63a3,3,0,0,1-1.27.25,2.17,2.17,0,0,1-1.64-.64,2.35,2.35,0,0,1-.61-1.7A2.41,2.41,0,0,1,42.2,6,2.66,2.66,0,0,1,45.08,5.54Z"/><path class="cls-2" d="M50.3,10H49.57l0-.73h0a1.59,1.59,0,0,1-1.48.83,1.41,1.41,0,0,1-1-.4,2.19,2.19,0,0,1-.5-1.59V5.4h0.83V8q0,1.46,1,1.46A1.09,1.09,0,0,0,49,9.17a1.17,1.17,0,0,0,.46-0.94V5.4h0.83V8.74Q50.27,9.36,50.3,10ZM49.71,3.48L48.57,4.84H48l0.83-1.36h0.9Z"/><path class="cls-2" d="M55.32,5.54l-0.18.64A1.93,1.93,0,0,0,54.2,6,1.44,1.44,0,0,0,53,6.48a1.82,1.82,0,0,0-.41,1.23A1.76,1.76,0,0,0,53,9a1.48,1.48,0,0,0,1.13.47,2.42,2.42,0,0,0,1-.22L55.3,9.84a3,3,0,0,1-1.27.25,2.17,2.17,0,0,1-1.64-.64,2.35,2.35,0,0,1-.61-1.7A2.41,2.41,0,0,1,52.44,6,2.66,2.66,0,0,1,55.32,5.54Z"/><path class="cls-2" d="M60.57,10H59.75V7.33q0-1.34-1-1.34a1.08,1.08,0,0,0-.68.23,1.24,1.24,0,0,0-.42.59,1.36,1.36,0,0,0,0,.39V10H56.74V3.26h0.83V6.1h0a1.58,1.58,0,0,1,.6-0.58A1.67,1.67,0,0,1,59,5.3a1.46,1.46,0,0,1,1,.38,2,2,0,0,1,.55,1.56V10h0Z"/><path class="cls-2" d="M65.64,10H64.89l-0.08-.57h0a1.59,1.59,0,0,1-1.38.66,1.35,1.35,0,0,1-1-.4A1.28,1.28,0,0,1,62,8.78a1.42,1.42,0,0,1,.7-1.28,3.73,3.73,0,0,1,2-.43V7a0.92,0.92,0,0,0-1-1.06,2.07,2.07,0,0,0-1.17.33l-0.19-.55a2.71,2.71,0,0,1,1.49-.39,1.58,1.58,0,0,1,1.71,1.86V8.91A6.3,6.3,0,0,0,65.64,10ZM64.75,8.46V7.65q-1.89,0-1.89,1a0.73,0.73,0,0,0,.77.8,1.13,1.13,0,0,0,.71-0.24,1.09,1.09,0,0,0,.37-0.52A0.93,0.93,0,0,0,64.75,8.46Z"/><path class="cls-2" d="M68.19,10H67.36V3.26h0.83V10Z"/><path class="cls-2" d="M74.1,7.66a2.56,2.56,0,0,1-.58,1.73,2.09,2.09,0,0,1-1.65.7,2,2,0,0,1-1.6-.68,2.51,2.51,0,0,1-.56-1.67A2.56,2.56,0,0,1,70.29,6a2.09,2.09,0,0,1,1.65-.7,2,2,0,0,1,1.6.68A2.48,2.48,0,0,1,74.1,7.66Zm-0.85,0a2.12,2.12,0,0,0-.32-1.19,1.16,1.16,0,0,0-1-.58,1.17,1.17,0,0,0-1,.58,2.15,2.15,0,0,0-.32,1.21,2.1,2.1,0,0,0,.33,1.19,1.19,1.19,0,0,0,2.05,0A2.15,2.15,0,0,0,73.25,7.69Z"/><path class="cls-2" d="M82,7.43a2.66,2.66,0,0,1,0,.41H78.83a1.63,1.63,0,0,0,.47,1.23,1.51,1.51,0,0,0,1.07.37,3.2,3.2,0,0,0,1.23-.23L81.76,9.8a3.67,3.67,0,0,1-1.5.28,2.12,2.12,0,0,1-1.62-.63A2.35,2.35,0,0,1,78,7.77,2.7,2.7,0,0,1,78.62,6a1.9,1.9,0,0,1,1.54-.7A1.65,1.65,0,0,1,81.64,6,2.49,2.49,0,0,1,82,7.43Zm-0.8-.19A1.57,1.57,0,0,0,81,6.36a1,1,0,0,0-.9-0.47,1.08,1.08,0,0,0-.91.46,1.85,1.85,0,0,0-.34.89h2.38Z"/><path class="cls-2" d="M87.35,10H86.53V7.33q0-1.35-1-1.35a1,1,0,0,0-.82.38,1.28,1.28,0,0,0-.33.87V10H83.52V6.64c0-.38,0-0.8,0-1.24h0.73l0,0.74h0a1.57,1.57,0,0,1,.55-0.58,1.76,1.76,0,0,1,.94-0.26,1.47,1.47,0,0,1,1,.38,2,2,0,0,1,.56,1.55V10h0Z"/><path class="cls-2" d="M88.3,22.49V20.86c0-2.78,1.2-4.15,3-4.15a2.71,2.71,0,0,1,2.79,2.86h2.95V19.27c0-2.8-2.17-5.14-5.76-5.14-3.84,0-6.14,2.48-6.14,6.72v1.63c0,4.23,2.27,6.68,6.12,6.68,3.68,0,5.77-2.37,5.77-5V23.85H94.13a2.59,2.59,0,0,1-2.77,2.73c-1.87,0-3.05-1.31-3.05-4.09h0ZM79,28.89H82V14.4H79V28.89h0ZM67.82,18.3c0-1.11.92-1.81,2.41-1.81,1.68,0,2.51.94,2.59,2h2.86c0-2.56-2.21-4.34-5.44-4.34-3.06,0-5.48,1.58-5.48,4.43,0,2.46,1.7,3.6,3.73,4l2.17,0.5c1.47,0.33,2.21.81,2.21,1.79S72,26.76,70.25,26.76s-2.8-1-2.89-2h-3c0,2,1.42,4.44,5.69,4.44,3.59,0,5.8-1.75,5.8-4.6,0-2.63-1.79-3.66-3.92-4.12L69.79,20c-1.3-.27-2-0.83-2-1.67h0Zm-6,5.68V14.4H58.74v9.15a2.86,2.86,0,1,1-5.72,0V14.4H50V24c0,3.09,2.23,5.19,5.92,5.19s5.92-2.1,5.92-5.19h0ZM44.2,28.89H47V14.4H43.85l-4,9h-0.1l-4-9H32.62V28.89h2.74V19.51h0.13L38.82,27h1.92l3.33-7.45H44.2v9.38h0ZM26.89,23a4.27,4.27,0,0,1-1.32-3.13,4.13,4.13,0,0,1,2.13-3.77,4.68,4.68,0,0,0-3.6-2,5.21,5.21,0,0,0-2.16.4,10.94,10.94,0,0,1-1.6.51,4.87,4.87,0,0,1-1.44-.44,4.94,4.94,0,0,0-1.81-.44,4.54,4.54,0,0,0-2.35.69A4.91,4.91,0,0,0,13,16.65a6.68,6.68,0,0,0-.83,3.41,10.94,10.94,0,0,0,.61,3.57,12,12,0,0,0,1.46,3,9.54,9.54,0,0,0,1.38,1.7,2.32,2.32,0,0,0,1.73.79,4.44,4.44,0,0,0,1.5-.42,4.33,4.33,0,0,1,1.73-.38,4.2,4.2,0,0,1,1.67.38,4.39,4.39,0,0,0,1.58.4,2.62,2.62,0,0,0,1.69-.77,4.59,4.59,0,0,0,.6-0.65q0.33-.42.72-1c0.18-.28.36-0.58,0.54-0.89a8.63,8.63,0,0,0,.48-1c0.07-.14.13-0.29,0.18-0.44l0.16-.47A4.42,4.42,0,0,1,26.89,23h0Zm-3.8-10.47a4.33,4.33,0,0,0,1-2.78V9.54a1,1,0,0,0,0-.2,3.88,3.88,0,0,0-1.55.45,4.26,4.26,0,0,0-1.35,1.05,4.07,4.07,0,0,0-1.06,2.68v0.19a0.84,0.84,0,0,0,0,.19,3.28,3.28,0,0,0,2.91-1.39h0Z"/></svg>