<svg id="Layer_1" data-name="Layer 1" xmlns="http://www.w3.org/2000/svg" viewBox="0 0 605.87 221.87"><title>spotify-badge</title><rect width="605.87" height="221.87" rx="17.29" ry="17.29"/><path d="M107.47,27.19a83.74,83.74,0,1,0,83.74,83.74A83.74,83.74,0,0,0,107.47,27.19ZM145.87,148a5.22,5.22,0,0,1-7.18,1.74C119,137.7,94.28,135,65.13,141.64a5.22,5.22,0,1,1-2.32-10.17c31.9-7.29,59.26-4.15,81.34,9.33A5.22,5.22,0,0,1,145.87,148Zm10.25-22.8a6.53,6.53,0,0,1-9,2.15c-22.5-13.83-56.82-17.84-83.45-9.76a6.53,6.53,0,1,1-3.79-12.49c30.42-9.23,68.23-4.76,94.07,11.13A6.53,6.53,0,0,1,156.12,125.18Zm.88-23.74c-27-16-71.52-17.5-97.29-9.68a7.83,7.83,0,1,1-4.55-15c29.58-9,78.76-7.24,109.83,11.2a7.83,7.83,0,0,1-8,13.47Z" style="fill:#1ed760"/><path d="M251.56,104.5c-14.46-3.45-17-5.87-17-11,0-4.8,4.52-8,11.25-8,6.52,0,13,2.46,19.76,7.51a1,1,0,0,0,.71.17.93.93,0,0,0,.63-.39l7.06-10a1,1,0,0,0-.18-1.29A42.71,42.71,0,0,0,246,71.95c-15.61,0-26.52,9.37-26.52,22.77,0,14.38,9.41,19.46,25.66,23.39,13.84,3.19,16.17,5.86,16.17,10.63,0,5.29-4.72,8.58-12.32,8.58-8.44,0-15.32-2.84-23-9.51a1,1,0,0,0-.69-.23.94.94,0,0,0-.65.33l-7.92,9.42a.94.94,0,0,0,.09,1.31,47.19,47.19,0,0,0,31.87,12.22c16.82,0,27.69-9.19,27.69-23.42C276.36,115.44,269.18,108.79,251.56,104.5Z" style="fill:#1ed760"/><path d="M314.42,90.24c-7.29,0-13.27,2.87-18.21,8.76V92.37a1,1,0,0,0-.95-.95H282.32a1,1,0,0,0-.95.95V166a1,1,0,0,0,.95.95h12.95a1,1,0,0,0,.95-.95V142.74A23.26,23.26,0,0,0,314.42,151c13.55,0,27.27-10.43,27.27-30.37S328,90.24,314.42,90.24Zm12.21,30.37c0,10.15-6.25,17.24-15.21,17.24s-15.53-7.41-15.53-17.24,6.68-17.24,15.53-17.24S326.63,110.63,326.63,120.62Z" style="fill:#1ed760"/><path d="M376.85,90.24c-17.45,0-31.12,13.44-31.12,30.59,0,17,13.58,30.26,30.9,30.26,17.51,0,31.22-13.39,31.22-30.48S394.24,90.24,376.85,90.24Zm0,47.72c-9.28,0-16.28-7.46-16.28-17.34s6.75-17.13,16.06-17.13S393,110.94,393,120.83,386.22,138,376.85,138Z" style="fill:#1ed760"/><path d="M445.12,91.43H430.87V76.86a1,1,0,0,0-.95-.95H417a1,1,0,0,0-.95.95V91.43H409.8a1,1,0,0,0-.94.95V103.5a1,1,0,0,0,.94.95H416v28.79c0,11.63,5.79,17.53,17.21,17.53a23.62,23.62,0,0,0,12.13-3,.94.94,0,0,0,.48-.82v-10.6a.95.95,0,0,0-1.37-.85,16.32,16.32,0,0,1-7.6,1.83c-4.15,0-6-1.89-6-6.11V104.45h14.25a1,1,0,0,0,.94-.95V92.37A1,1,0,0,0,445.12,91.43Z" style="fill:#1ed760"/><path d="M494.75,91.48V89.69c0-5.26,2-7.61,6.54-7.61a21.85,21.85,0,0,1,7.3,1.35.95.95,0,0,0,1.25-.9V71.62a1,1,0,0,0-.67-.91,35.53,35.53,0,0,0-10.76-1.55c-12,0-18.28,6.73-18.28,19.47v2.74h-6.22a1,1,0,0,0-1,.95V103.5a1,1,0,0,0,1,.95h6.22v44.41a1,1,0,0,0,.94.95H494a1,1,0,0,0,.95-.95V104.45h12.09l18.52,44.4c-2.1,4.67-4.17,5.59-7,5.59a14.93,14.93,0,0,1-7.14-2,1,1,0,0,0-.75-.07,1,1,0,0,0-.56.51l-4.39,9.63a.94.94,0,0,0,.41,1.22A27.26,27.26,0,0,0,520,167.25c9.56,0,14.84-4.45,19.5-16.43l22.46-58a.95.95,0,0,0-.88-1.29H547.58a1,1,0,0,0-.9.64l-13.81,39.44L517.75,92.09a.94.94,0,0,0-.88-.61Z" style="fill:#1ed760"/><rect x="452.08" y="91.43" width="14.84" height="58.38" rx="0.95" ry="0.95" style="fill:#1ed760"/><circle cx="459.57" cy="74.99" r="9.29" style="fill:#1ed760"/><path d="M573,109.59a9.14,9.14,0,1,1,9.16-9.16A9.08,9.08,0,0,1,573,109.59Zm0-17.36a8.23,8.23,0,1,0,8.15,8.2A8.15,8.15,0,0,0,573,92.22Zm2,9.14,2.58,3.61h-2.17l-2.32-3.31h-2V105h-1.82V95.4h4.26c2.22,0,3.68,1.14,3.68,3.05A2.85,2.85,0,0,1,575.06,101.36ZM573.52,97h-2.37v3h2.37c1.18,0,1.89-.58,1.89-1.51S574.71,97,573.52,97Z" style="fill:#1ed760"/><text transform="translate(216.48 52.62)" style="font-size:36px;fill:#fff;font-family:Helvetica-Bold, Helvetica;font-weight:700">Escúchalo en</text></svg>